%TF.GenerationSoftware,KiCad,Pcbnew,(7.0.0)*%
%TF.CreationDate,2023-10-05T11:29:09+03:00*%
%TF.ProjectId,Controller,436f6e74-726f-46c6-9c65-722e6b696361,1.0*%
%TF.SameCoordinates,Original*%
%TF.FileFunction,Profile,NP*%
%FSLAX46Y46*%
G04 Gerber Fmt 4.6, Leading zero omitted, Abs format (unit mm)*
G04 Created by KiCad (PCBNEW (7.0.0)) date 2023-10-05 11:29:09*
%MOMM*%
%LPD*%
G01*
G04 APERTURE LIST*
%TA.AperFunction,Profile*%
%ADD10C,0.050000*%
%TD*%
%TA.AperFunction,Profile*%
%ADD11C,0.100000*%
%TD*%
G04 APERTURE END LIST*
D10*
X131893262Y-107940466D02*
G75*
G03*
X99314001Y-107950000I-16288342J-4407214D01*
G01*
X77594001Y-104363233D02*
X98888750Y-104360818D01*
X164491794Y-79338233D02*
G75*
G03*
X164491794Y-79338233I-2547793J0D01*
G01*
X156791794Y-75863233D02*
G75*
G03*
X156791794Y-75863233I-2547793J0D01*
G01*
X148665165Y-70865999D02*
X169844001Y-70865999D01*
X134819001Y-104413233D02*
X150244001Y-104413233D01*
D11*
X183642000Y-127000000D02*
X99314000Y-127000000D01*
D10*
X173444000Y-70866000D02*
X200444000Y-70866000D01*
X81828557Y-71390260D02*
X82594001Y-70863233D01*
X113194000Y-70863234D02*
X136794001Y-70863233D01*
X132344000Y-104413233D02*
G75*
G03*
X98888751Y-104360818I-16739620J-7630257D01*
G01*
X109594002Y-70863234D02*
G75*
G03*
X113194000Y-70863234I1799999J-1999999D01*
G01*
X82594001Y-70863233D02*
X109594002Y-70863234D01*
X201209444Y-71393027D02*
G75*
G03*
X203194000Y-78866000I1984556J-3472973D01*
G01*
X183641990Y-107950003D02*
G75*
G03*
X151134338Y-107955373I-16253100J-4397677D01*
G01*
D11*
X183642000Y-107950000D02*
X183642000Y-127000000D01*
D10*
X205444000Y-104366000D02*
X184145619Y-104365208D01*
X77594001Y-78863233D02*
X79844001Y-78863233D01*
X169844002Y-70866000D02*
G75*
G03*
X173444000Y-70866000I1799999J-1999999D01*
G01*
X134819001Y-104413233D02*
X132344001Y-104413233D01*
X79844001Y-78863228D02*
G75*
G03*
X81828557Y-71390260I-1J3999998D01*
G01*
D11*
X131893272Y-107940464D02*
X151134337Y-107955373D01*
D10*
X148665165Y-70865999D02*
X136794001Y-70863233D01*
X205444000Y-78866000D02*
X203194000Y-78866000D01*
D11*
X99314000Y-127000000D02*
X99314001Y-107950000D01*
D10*
X201209444Y-71393027D02*
X200444000Y-70866000D01*
X205444000Y-78866000D02*
X205444000Y-104366000D01*
X77594001Y-78863233D02*
X77594001Y-104363233D01*
X184145619Y-104365208D02*
G75*
G03*
X150244001Y-104413233I-16939089J-8297482D01*
G01*
M02*
