%TF.GenerationSoftware,KiCad,Pcbnew,(7.0.0)*%
%TF.CreationDate,2023-10-05T11:29:09+03:00*%
%TF.ProjectId,Controller,436f6e74-726f-46c6-9c65-722e6b696361,1.0*%
%TF.SameCoordinates,Original*%
%TF.FileFunction,Paste,Bot*%
%TF.FilePolarity,Positive*%
%FSLAX46Y46*%
G04 Gerber Fmt 4.6, Leading zero omitted, Abs format (unit mm)*
G04 Created by KiCad (PCBNEW (7.0.0)) date 2023-10-05 11:29:09*
%MOMM*%
%LPD*%
G01*
G04 APERTURE LIST*
G04 Aperture macros list*
%AMRoundRect*
0 Rectangle with rounded corners*
0 $1 Rounding radius*
0 $2 $3 $4 $5 $6 $7 $8 $9 X,Y pos of 4 corners*
0 Add a 4 corners polygon primitive as box body*
4,1,4,$2,$3,$4,$5,$6,$7,$8,$9,$2,$3,0*
0 Add four circle primitives for the rounded corners*
1,1,$1+$1,$2,$3*
1,1,$1+$1,$4,$5*
1,1,$1+$1,$6,$7*
1,1,$1+$1,$8,$9*
0 Add four rect primitives between the rounded corners*
20,1,$1+$1,$2,$3,$4,$5,0*
20,1,$1+$1,$4,$5,$6,$7,0*
20,1,$1+$1,$6,$7,$8,$9,0*
20,1,$1+$1,$8,$9,$2,$3,0*%
%AMRotRect*
0 Rectangle, with rotation*
0 The origin of the aperture is its center*
0 $1 length*
0 $2 width*
0 $3 Rotation angle, in degrees counterclockwise*
0 Add horizontal line*
21,1,$1,$2,0,0,$3*%
G04 Aperture macros list end*
%ADD10RoundRect,0.079500X0.079500X0.100500X-0.079500X0.100500X-0.079500X-0.100500X0.079500X-0.100500X0*%
%ADD11R,1.200000X0.700000*%
%ADD12R,0.800000X1.000000*%
%ADD13R,2.800000X1.000000*%
%ADD14R,1.200000X1.000000*%
%ADD15R,1.900000X1.300000*%
%ADD16R,0.900000X0.900000*%
%ADD17R,1.500000X0.900000*%
%ADD18R,0.900000X1.500000*%
%ADD19R,0.700000X0.700000*%
%ADD20RoundRect,0.079500X-0.079500X-0.100500X0.079500X-0.100500X0.079500X0.100500X-0.079500X0.100500X0*%
%ADD21RoundRect,0.140000X0.219203X0.021213X0.021213X0.219203X-0.219203X-0.021213X-0.021213X-0.219203X0*%
%ADD22RoundRect,0.079500X-0.100500X0.079500X-0.100500X-0.079500X0.100500X-0.079500X0.100500X0.079500X0*%
%ADD23RoundRect,0.150000X0.200000X-0.150000X0.200000X0.150000X-0.200000X0.150000X-0.200000X-0.150000X0*%
%ADD24R,1.700000X0.900000*%
%ADD25RotRect,0.900000X1.700000X315.000000*%
%ADD26RoundRect,0.150000X-0.200000X0.150000X-0.200000X-0.150000X0.200000X-0.150000X0.200000X0.150000X0*%
G04 APERTURE END LIST*
D10*
%TO.C,R404*%
X150840000Y-80899000D03*
X150150000Y-80899000D03*
%TD*%
D11*
%TO.C,J501*%
X188818999Y-94946999D03*
X188818999Y-93846999D03*
X188818999Y-92746999D03*
X188818999Y-91646999D03*
X188818999Y-90546999D03*
X188818999Y-89446999D03*
X188818999Y-88346999D03*
X188818999Y-87246999D03*
X188818999Y-86296999D03*
D12*
X199318999Y-85346999D03*
D13*
X203468999Y-85346999D03*
D14*
X193118999Y-85346999D03*
X188818999Y-96496999D03*
D15*
X203918999Y-98846999D03*
%TD*%
D16*
%TO.C,U401*%
X138573605Y-90856999D03*
X138577999Y-92256999D03*
X138577999Y-93656999D03*
X139973605Y-90856999D03*
X139977999Y-92256999D03*
X139977999Y-93656999D03*
X141373605Y-90856999D03*
X141377999Y-92256999D03*
X141377999Y-93656999D03*
D17*
X132727999Y-99976999D03*
X132727999Y-98706999D03*
X132727999Y-97436999D03*
X132727999Y-96166999D03*
X132727999Y-94896999D03*
X132727999Y-93626999D03*
X132727999Y-92356999D03*
X132727999Y-91086999D03*
X132727999Y-89816999D03*
X132727999Y-88546999D03*
X132727999Y-87276999D03*
X132727999Y-86006999D03*
X132727999Y-84736999D03*
X132727999Y-83466999D03*
D18*
X134492999Y-82216999D03*
X135762999Y-82216999D03*
X137032999Y-82216999D03*
X138302999Y-82216999D03*
X139572999Y-82216999D03*
X140842999Y-82216999D03*
X142112999Y-82216999D03*
X143382999Y-82216999D03*
X144652999Y-82216999D03*
X145922999Y-82216999D03*
X147192999Y-82216999D03*
X148462999Y-82216999D03*
D17*
X150227999Y-83466999D03*
X150227999Y-84736999D03*
X150227999Y-86006999D03*
X150227999Y-87276999D03*
X150227999Y-88546999D03*
X150227999Y-89816999D03*
X150227999Y-91086999D03*
X150227999Y-92356999D03*
X150227999Y-93626999D03*
X150227999Y-94896999D03*
X150227999Y-96166999D03*
X150227999Y-97436999D03*
X150227999Y-98706999D03*
X150227999Y-99976999D03*
%TD*%
D19*
%TO.C,D403*%
X142392999Y-73617999D03*
X142392999Y-74717999D03*
X140562999Y-74717999D03*
X140562999Y-73617999D03*
%TD*%
D20*
%TO.C,R406*%
X135098000Y-80899000D03*
X135788000Y-80899000D03*
%TD*%
D21*
%TO.C,C406*%
X130599822Y-95293822D03*
X129921000Y-94615000D03*
%TD*%
D22*
%TO.C,C404*%
X131345000Y-99477000D03*
X131345000Y-100167000D03*
%TD*%
D23*
%TO.C,D401*%
X151993600Y-98676000D03*
X151993600Y-100076000D03*
%TD*%
D10*
%TO.C,R401*%
X152632800Y-97739200D03*
X151942800Y-97739200D03*
%TD*%
D24*
%TO.C,SW402*%
X153034999Y-83487999D03*
X153034999Y-80087999D03*
%TD*%
D25*
%TO.C,SW401*%
X127534328Y-95276328D03*
X129938492Y-97680492D03*
%TD*%
D10*
%TO.C,R405*%
X149122000Y-80899000D03*
X148432000Y-80899000D03*
%TD*%
D26*
%TO.C,D402*%
X151993600Y-96000800D03*
X151993600Y-94600800D03*
%TD*%
D22*
%TO.C,C407*%
X143357000Y-73865000D03*
X143357000Y-74555000D03*
%TD*%
D20*
%TO.C,R402*%
X151928000Y-97028000D03*
X152618000Y-97028000D03*
%TD*%
M02*
