M48
; DRILL file {KiCad (7.0.0)} date Thu Oct  5 11:29:17 2023
; FORMAT={-:-/ absolute / inch / decimal}
; #@! TF.CreationDate,2023-10-05T11:29:17+03:00
; #@! TF.GenerationSoftware,Kicad,Pcbnew,(7.0.0)
; #@! TF.FileFunction,Plated,1,4,PTH
FMAT,2
INCH
; #@! TA.AperFunction,Plated,PTH,ComponentDrill
T1C0.0079
; #@! TA.AperFunction,Plated,PTH,ViaDrill
T2C0.0118
; #@! TA.AperFunction,Plated,PTH,ViaDrill
T3C0.0157
; #@! TA.AperFunction,Plated,PTH,ComponentDrill
T4C0.0236
; #@! TA.AperFunction,Plated,PTH,ComponentDrill
T5C0.0256
; #@! TA.AperFunction,Plated,PTH,ComponentDrill
T6C0.0315
; #@! TA.AperFunction,Plated,PTH,ComponentDrill
T7C0.0354
; #@! TA.AperFunction,Plated,PTH,ComponentDrill
T8C0.0394
; #@! TA.AperFunction,Plated,PTH,ComponentDrill
T9C0.0591
%
G90
G05
T1
X4.8124Y-3.2396
X4.8124Y-3.2809
X4.8124Y-3.3222
X4.8537Y-3.2396
X4.8537Y-3.2809
X4.8537Y-3.3222
X4.8951Y-3.2396
X4.8951Y-3.2809
X4.8951Y-3.3222
X5.4558Y-3.6046
X5.4558Y-3.6597
X5.4834Y-3.577
X5.4834Y-3.6322
X5.4834Y-3.6873
X5.5109Y-3.6046
X5.5109Y-3.6597
X5.5385Y-3.577
X5.5385Y-3.6322
X5.5385Y-3.6873
X5.5661Y-3.6046
X5.5661Y-3.6597
T2
X3.305Y-3.3
X3.71Y-3.26
X3.71Y-3.3
X3.71Y-3.34
X3.75Y-2.855
X3.75Y-3.26
X3.75Y-3.3
X3.75Y-3.34
X3.75Y-3.75
X3.79Y-3.26
X3.79Y-3.3
X3.79Y-3.34
X4.2Y-3.3
X4.575Y-3.435
X4.575Y-3.465
X4.575Y-3.495
X4.575Y-3.525
X4.725Y-3.25
X4.74Y-3.225
X4.755Y-3.2
X4.78Y-3.1
X4.835Y-3.7
X4.94Y-3.2
X4.945Y-3.53
X4.945Y-3.555
X4.955Y-3.415
X4.9776Y-3.2626
X4.985Y-3.338
X4.99Y-3.53
X4.9921Y-3.2323
X5.014Y-3.338
X5.014Y-3.3635
X5.02Y-3.53
X5.04Y-3.445
X5.04Y-3.495
X5.055Y-3.255
X5.0626Y-3.1874
X5.085Y-3.255
X5.088Y-3.336
X5.092Y-3.424
X5.116Y-3.444
X5.14Y-3.885
X5.142Y-3.336
X5.142Y-3.424
X5.165Y-3.155
X5.165Y-3.18
X5.165Y-3.205
X5.175Y-3.835
X5.175Y-3.885
X5.18Y-3.98
X5.22Y-3.98
X5.255Y-3.98
X5.27Y-3.5361
X5.275Y-3.585
X5.275Y-3.89
X5.285Y-3.185
X5.29Y-3.97
X5.305Y-3.89
X5.375Y-3.76
X5.41Y-3.186
X5.42Y-3.145
X5.425Y-3.96
X5.43Y-3.45
X5.4485Y-3.0934
X5.455Y-3.505
X5.475Y-3.7426
X5.49Y-3.51
X5.4937Y-3.7813
X5.515Y-3.345
X5.5446Y-3.3447
X5.5466Y-3.1675
X5.56Y-3.7426
X5.565Y-3.985
X5.57Y-2.92
X5.57Y-4.295
X5.572Y-3.86
X5.575Y-3.345
X5.5775Y-3.1775
X5.6Y-3.83
X5.605Y-3.345
X5.6332Y-3.3364
X5.64Y-3.3724
X5.644Y-3.95
X5.6505Y-3.1897
X5.66Y-3.68
X5.66Y-3.715
X5.665Y-3.495
X5.67Y-2.908
X5.67Y-3.285
X5.676Y-3.792
X5.68Y-3.1897
X5.692Y-3.094
X5.6969Y-3.495
X5.7224Y-3.2931
X5.725Y-3.3325
X5.726Y-3.372
X5.785Y-3.95
X5.8187Y-3.4506
X5.8194Y-3.4113
X5.82Y-3.3719
X5.825Y-3.5669
X5.825Y-3.6069
X5.855Y-3.35
X5.855Y-3.39
X5.855Y-3.43
X5.855Y-3.47
X5.938Y-3.154
X5.975Y-3.335
X5.975Y-3.385
X5.975Y-3.435
X5.975Y-3.485
X5.975Y-3.535
X5.975Y-3.585
X5.975Y-3.635
X5.975Y-3.685
X5.9836Y-3.7501
X6.0Y-3.36
X6.0Y-3.41
X6.0Y-3.46
X6.0Y-3.51
X6.0Y-3.56
X6.0Y-3.61
X6.0Y-3.66
X6.035Y-3.66
X6.049Y-3.361
X6.049Y-3.461
X6.049Y-3.611
X6.05Y-3.41
X6.05Y-3.51
X6.05Y-3.56
X6.074Y-3.66
X6.085Y-3.36
X6.085Y-3.41
X6.085Y-3.46
X6.085Y-3.51
X6.085Y-3.56
X6.085Y-3.61
X6.26Y-3.72
X6.632Y-3.016
X7.115Y-3.72
X7.225Y-3.725
X7.3Y-3.715
X7.36Y-3.3
X7.4Y-3.26
X7.4Y-3.3
X7.4Y-3.34
X7.44Y-3.3
X7.6Y-3.555
T3
X4.8666Y-3.4637
T5
X5.37Y-4.37
X5.3702Y-4.05
X5.42Y-4.37
X5.4202Y-4.05
X5.47Y-4.37
X5.4702Y-4.05
X5.52Y-4.37
X5.5202Y-4.05
X5.57Y-4.37
X5.5702Y-4.05
X5.62Y-4.37
X5.6202Y-4.05
X5.67Y-4.37
X5.6702Y-4.05
X5.72Y-4.37
X5.7202Y-4.05
X5.77Y-4.37
X5.7702Y-4.05
T6
X3.3Y-3.99
X3.4Y-3.99
X4.575Y-3.105
X4.575Y-3.2
X4.576Y-2.915
X4.576Y-3.0094
X4.675Y-3.105
X4.675Y-3.2
X4.676Y-2.915
X4.676Y-3.0094
X4.9308Y-3.124
X5.0308Y-3.124
X6.714Y-3.15
X6.714Y-3.25
X6.7142Y-3.055
X6.814Y-3.15
X6.814Y-3.25
X6.8142Y-3.055
X7.5958Y-4.0042
X7.6958Y-4.0042
T7
X6.27Y-2.95
X6.37Y-2.95
X6.47Y-2.95
X6.57Y-2.95
T8
X4.1713Y-4.3519
X4.1713Y-4.47
X4.1713Y-4.5881
X4.4272Y-3.9621
X4.4272Y-4.155
X4.4469Y-4.8243
X4.565Y-4.8243
X4.6831Y-4.8243
X4.7028Y-3.9625
X4.7028Y-4.155
X6.1832Y-4.3716
X6.1832Y-4.4897
X6.1832Y-4.6078
X6.4391Y-3.9818
X6.4391Y-4.1747
X6.4588Y-4.844
X6.5769Y-4.844
X6.695Y-4.844
X6.7147Y-3.9822
X6.7147Y-4.1747
T9
X4.2501Y-4.1944
X4.2501Y-4.7456
X4.88Y-4.1944
X4.88Y-4.7456
X6.2619Y-4.2141
X6.2619Y-4.7653
X6.8919Y-4.2141
X6.8919Y-4.7653
T4
G00X5.3999Y-2.9235
M15
G01X5.3999Y-2.8724
M16
G05
G00X5.3999Y-3.0682
M15
G01X5.3999Y-3.0289
M16
G05
G00X5.7401Y-2.9235
M15
G01X5.7401Y-2.8724
M16
G05
G00X5.7401Y-3.0682
M15
G01X5.7401Y-3.0289
M16
G05
T0
M30
