%TF.GenerationSoftware,KiCad,Pcbnew,(7.0.0)*%
%TF.CreationDate,2023-10-05T11:29:09+03:00*%
%TF.ProjectId,Controller,436f6e74-726f-46c6-9c65-722e6b696361,1.0*%
%TF.SameCoordinates,Original*%
%TF.FileFunction,Legend,Top*%
%TF.FilePolarity,Positive*%
%FSLAX46Y46*%
G04 Gerber Fmt 4.6, Leading zero omitted, Abs format (unit mm)*
G04 Created by KiCad (PCBNEW (7.0.0)) date 2023-10-05 11:29:09*
%MOMM*%
%LPD*%
G01*
G04 APERTURE LIST*
%ADD10C,0.150000*%
%ADD11C,0.100000*%
%ADD12C,0.050000*%
%ADD13C,0.120000*%
%ADD14C,4.525000*%
%ADD15C,0.200000*%
G04 APERTURE END LIST*
D10*
X128397000Y-78486000D02*
X128397000Y-77216000D01*
X124587000Y-77216000D02*
X124587000Y-78486000D01*
D11*
X142302656Y-108635800D02*
X142302656Y-109550200D01*
X145731656Y-109550200D02*
X145731656Y-108635800D01*
X140727856Y-108635800D02*
X137298856Y-108635800D01*
D12*
X136794001Y-70863233D02*
X136794001Y-72263233D01*
D11*
X142302656Y-109550200D02*
X145731656Y-109550200D01*
D12*
X136794001Y-72263233D02*
X143994001Y-72263233D01*
D11*
X137298856Y-109550200D02*
X140727856Y-109550200D01*
D12*
X144004001Y-72263233D02*
G75*
G03*
X148665165Y-70865999I2539999J3D01*
G01*
D11*
X140727856Y-109550200D02*
X140727856Y-108635800D01*
D10*
X128397000Y-77216000D02*
X124587000Y-77216000D01*
D11*
X137298856Y-108635800D02*
X137298856Y-109550200D01*
X145731656Y-108635800D02*
X142302656Y-108635800D01*
D10*
X166992285Y-80231857D02*
X167078000Y-80260428D01*
X167078000Y-80260428D02*
X167220857Y-80260428D01*
X167220857Y-80260428D02*
X167278000Y-80231857D01*
X167278000Y-80231857D02*
X167306571Y-80203285D01*
X167306571Y-80203285D02*
X167335142Y-80146142D01*
X167335142Y-80146142D02*
X167335142Y-80089000D01*
X167335142Y-80089000D02*
X167306571Y-80031857D01*
X167306571Y-80031857D02*
X167278000Y-80003285D01*
X167278000Y-80003285D02*
X167220857Y-79974714D01*
X167220857Y-79974714D02*
X167106571Y-79946142D01*
X167106571Y-79946142D02*
X167049428Y-79917571D01*
X167049428Y-79917571D02*
X167020857Y-79889000D01*
X167020857Y-79889000D02*
X166992285Y-79831857D01*
X166992285Y-79831857D02*
X166992285Y-79774714D01*
X166992285Y-79774714D02*
X167020857Y-79717571D01*
X167020857Y-79717571D02*
X167049428Y-79689000D01*
X167049428Y-79689000D02*
X167106571Y-79660428D01*
X167106571Y-79660428D02*
X167249428Y-79660428D01*
X167249428Y-79660428D02*
X167335142Y-79689000D01*
X167535143Y-79660428D02*
X167678000Y-80260428D01*
X167678000Y-80260428D02*
X167792286Y-79831857D01*
X167792286Y-79831857D02*
X167906571Y-80260428D01*
X167906571Y-80260428D02*
X168049429Y-79660428D01*
X168135143Y-80317571D02*
X168592285Y-80317571D01*
X168992286Y-79860428D02*
X168992286Y-80260428D01*
X168849428Y-79631857D02*
X168706571Y-80060428D01*
X168706571Y-80060428D02*
X169078000Y-80060428D01*
X145160141Y-109365657D02*
X145245856Y-109394228D01*
X145245856Y-109394228D02*
X145388713Y-109394228D01*
X145388713Y-109394228D02*
X145445856Y-109365657D01*
X145445856Y-109365657D02*
X145474427Y-109337085D01*
X145474427Y-109337085D02*
X145502998Y-109279942D01*
X145502998Y-109279942D02*
X145502998Y-109222800D01*
X145502998Y-109222800D02*
X145474427Y-109165657D01*
X145474427Y-109165657D02*
X145445856Y-109137085D01*
X145445856Y-109137085D02*
X145388713Y-109108514D01*
X145388713Y-109108514D02*
X145274427Y-109079942D01*
X145274427Y-109079942D02*
X145217284Y-109051371D01*
X145217284Y-109051371D02*
X145188713Y-109022800D01*
X145188713Y-109022800D02*
X145160141Y-108965657D01*
X145160141Y-108965657D02*
X145160141Y-108908514D01*
X145160141Y-108908514D02*
X145188713Y-108851371D01*
X145188713Y-108851371D02*
X145217284Y-108822800D01*
X145217284Y-108822800D02*
X145274427Y-108794228D01*
X145274427Y-108794228D02*
X145417284Y-108794228D01*
X145417284Y-108794228D02*
X145502998Y-108822800D01*
X83327857Y-103145857D02*
X83785000Y-103145857D01*
X83556428Y-103374428D02*
X83556428Y-102917285D01*
X125818857Y-77787142D02*
X125904571Y-77815714D01*
X125904571Y-77815714D02*
X125933142Y-77844285D01*
X125933142Y-77844285D02*
X125961714Y-77901428D01*
X125961714Y-77901428D02*
X125961714Y-77987142D01*
X125961714Y-77987142D02*
X125933142Y-78044285D01*
X125933142Y-78044285D02*
X125904571Y-78072857D01*
X125904571Y-78072857D02*
X125847428Y-78101428D01*
X125847428Y-78101428D02*
X125618857Y-78101428D01*
X125618857Y-78101428D02*
X125618857Y-77501428D01*
X125618857Y-77501428D02*
X125818857Y-77501428D01*
X125818857Y-77501428D02*
X125876000Y-77530000D01*
X125876000Y-77530000D02*
X125904571Y-77558571D01*
X125904571Y-77558571D02*
X125933142Y-77615714D01*
X125933142Y-77615714D02*
X125933142Y-77672857D01*
X125933142Y-77672857D02*
X125904571Y-77730000D01*
X125904571Y-77730000D02*
X125876000Y-77758571D01*
X125876000Y-77758571D02*
X125818857Y-77787142D01*
X125818857Y-77787142D02*
X125618857Y-77787142D01*
X126190285Y-77930000D02*
X126476000Y-77930000D01*
X126133142Y-78101428D02*
X126333142Y-77501428D01*
X126333142Y-77501428D02*
X126533142Y-78101428D01*
X126647428Y-77501428D02*
X126990286Y-77501428D01*
X126818857Y-78101428D02*
X126818857Y-77501428D01*
X127104571Y-77501428D02*
X127447429Y-77501428D01*
X127276000Y-78101428D02*
X127276000Y-77501428D01*
X127650857Y-77872857D02*
X128108000Y-77872857D01*
X111721857Y-78803142D02*
X111807571Y-78831714D01*
X111807571Y-78831714D02*
X111836142Y-78860285D01*
X111836142Y-78860285D02*
X111864714Y-78917428D01*
X111864714Y-78917428D02*
X111864714Y-79003142D01*
X111864714Y-79003142D02*
X111836142Y-79060285D01*
X111836142Y-79060285D02*
X111807571Y-79088857D01*
X111807571Y-79088857D02*
X111750428Y-79117428D01*
X111750428Y-79117428D02*
X111521857Y-79117428D01*
X111521857Y-79117428D02*
X111521857Y-78517428D01*
X111521857Y-78517428D02*
X111721857Y-78517428D01*
X111721857Y-78517428D02*
X111779000Y-78546000D01*
X111779000Y-78546000D02*
X111807571Y-78574571D01*
X111807571Y-78574571D02*
X111836142Y-78631714D01*
X111836142Y-78631714D02*
X111836142Y-78688857D01*
X111836142Y-78688857D02*
X111807571Y-78746000D01*
X111807571Y-78746000D02*
X111779000Y-78774571D01*
X111779000Y-78774571D02*
X111721857Y-78803142D01*
X111721857Y-78803142D02*
X111521857Y-78803142D01*
X112093285Y-78946000D02*
X112379000Y-78946000D01*
X112036142Y-79117428D02*
X112236142Y-78517428D01*
X112236142Y-78517428D02*
X112436142Y-79117428D01*
X112550428Y-78517428D02*
X112893286Y-78517428D01*
X112721857Y-79117428D02*
X112721857Y-78517428D01*
X113007571Y-78517428D02*
X113350429Y-78517428D01*
X113179000Y-79117428D02*
X113179000Y-78517428D01*
X113407572Y-79174571D02*
X113864714Y-79174571D01*
X113921857Y-78517428D02*
X114264715Y-78517428D01*
X114093286Y-79117428D02*
X114093286Y-78517428D01*
X114436143Y-79088857D02*
X114521858Y-79117428D01*
X114521858Y-79117428D02*
X114664715Y-79117428D01*
X114664715Y-79117428D02*
X114721858Y-79088857D01*
X114721858Y-79088857D02*
X114750429Y-79060285D01*
X114750429Y-79060285D02*
X114779000Y-79003142D01*
X114779000Y-79003142D02*
X114779000Y-78946000D01*
X114779000Y-78946000D02*
X114750429Y-78888857D01*
X114750429Y-78888857D02*
X114721858Y-78860285D01*
X114721858Y-78860285D02*
X114664715Y-78831714D01*
X114664715Y-78831714D02*
X114550429Y-78803142D01*
X114550429Y-78803142D02*
X114493286Y-78774571D01*
X114493286Y-78774571D02*
X114464715Y-78746000D01*
X114464715Y-78746000D02*
X114436143Y-78688857D01*
X114436143Y-78688857D02*
X114436143Y-78631714D01*
X114436143Y-78631714D02*
X114464715Y-78574571D01*
X114464715Y-78574571D02*
X114493286Y-78546000D01*
X114493286Y-78546000D02*
X114550429Y-78517428D01*
X114550429Y-78517428D02*
X114693286Y-78517428D01*
X114693286Y-78517428D02*
X114779000Y-78546000D01*
X142566170Y-108794228D02*
X142966170Y-109394228D01*
X142966170Y-108794228D02*
X142566170Y-109394228D01*
X85867857Y-103145857D02*
X86325000Y-103145857D01*
X120256285Y-76675857D02*
X120342000Y-76704428D01*
X120342000Y-76704428D02*
X120484857Y-76704428D01*
X120484857Y-76704428D02*
X120542000Y-76675857D01*
X120542000Y-76675857D02*
X120570571Y-76647285D01*
X120570571Y-76647285D02*
X120599142Y-76590142D01*
X120599142Y-76590142D02*
X120599142Y-76533000D01*
X120599142Y-76533000D02*
X120570571Y-76475857D01*
X120570571Y-76475857D02*
X120542000Y-76447285D01*
X120542000Y-76447285D02*
X120484857Y-76418714D01*
X120484857Y-76418714D02*
X120370571Y-76390142D01*
X120370571Y-76390142D02*
X120313428Y-76361571D01*
X120313428Y-76361571D02*
X120284857Y-76333000D01*
X120284857Y-76333000D02*
X120256285Y-76275857D01*
X120256285Y-76275857D02*
X120256285Y-76218714D01*
X120256285Y-76218714D02*
X120284857Y-76161571D01*
X120284857Y-76161571D02*
X120313428Y-76133000D01*
X120313428Y-76133000D02*
X120370571Y-76104428D01*
X120370571Y-76104428D02*
X120513428Y-76104428D01*
X120513428Y-76104428D02*
X120599142Y-76133000D01*
X120799143Y-76104428D02*
X120942000Y-76704428D01*
X120942000Y-76704428D02*
X121056286Y-76275857D01*
X121056286Y-76275857D02*
X121170571Y-76704428D01*
X121170571Y-76704428D02*
X121313429Y-76104428D01*
X121399143Y-76761571D02*
X121856285Y-76761571D01*
X121970571Y-76161571D02*
X121999143Y-76133000D01*
X121999143Y-76133000D02*
X122056286Y-76104428D01*
X122056286Y-76104428D02*
X122199143Y-76104428D01*
X122199143Y-76104428D02*
X122256286Y-76133000D01*
X122256286Y-76133000D02*
X122284857Y-76161571D01*
X122284857Y-76161571D02*
X122313428Y-76218714D01*
X122313428Y-76218714D02*
X122313428Y-76275857D01*
X122313428Y-76275857D02*
X122284857Y-76361571D01*
X122284857Y-76361571D02*
X121942000Y-76704428D01*
X121942000Y-76704428D02*
X122313428Y-76704428D01*
X140051570Y-108794228D02*
X140451570Y-109394228D01*
X140451570Y-108794228D02*
X140051570Y-109394228D01*
X113445857Y-81714571D02*
X113388714Y-81686000D01*
X113388714Y-81686000D02*
X113331571Y-81628857D01*
X113331571Y-81628857D02*
X113245857Y-81543142D01*
X113245857Y-81543142D02*
X113188714Y-81514571D01*
X113188714Y-81514571D02*
X113131571Y-81514571D01*
X113160142Y-81657428D02*
X113103000Y-81628857D01*
X113103000Y-81628857D02*
X113045857Y-81571714D01*
X113045857Y-81571714D02*
X113017285Y-81457428D01*
X113017285Y-81457428D02*
X113017285Y-81257428D01*
X113017285Y-81257428D02*
X113045857Y-81143142D01*
X113045857Y-81143142D02*
X113103000Y-81086000D01*
X113103000Y-81086000D02*
X113160142Y-81057428D01*
X113160142Y-81057428D02*
X113274428Y-81057428D01*
X113274428Y-81057428D02*
X113331571Y-81086000D01*
X113331571Y-81086000D02*
X113388714Y-81143142D01*
X113388714Y-81143142D02*
X113417285Y-81257428D01*
X113417285Y-81257428D02*
X113417285Y-81457428D01*
X113417285Y-81457428D02*
X113388714Y-81571714D01*
X113388714Y-81571714D02*
X113331571Y-81628857D01*
X113331571Y-81628857D02*
X113274428Y-81657428D01*
X113274428Y-81657428D02*
X113160142Y-81657428D01*
X113788713Y-81057428D02*
X113902999Y-81057428D01*
X113902999Y-81057428D02*
X113960142Y-81086000D01*
X113960142Y-81086000D02*
X114017285Y-81143142D01*
X114017285Y-81143142D02*
X114045856Y-81257428D01*
X114045856Y-81257428D02*
X114045856Y-81457428D01*
X114045856Y-81457428D02*
X114017285Y-81571714D01*
X114017285Y-81571714D02*
X113960142Y-81628857D01*
X113960142Y-81628857D02*
X113902999Y-81657428D01*
X113902999Y-81657428D02*
X113788713Y-81657428D01*
X113788713Y-81657428D02*
X113731571Y-81628857D01*
X113731571Y-81628857D02*
X113674428Y-81571714D01*
X113674428Y-81571714D02*
X113645856Y-81457428D01*
X113645856Y-81457428D02*
X113645856Y-81257428D01*
X113645856Y-81257428D02*
X113674428Y-81143142D01*
X113674428Y-81143142D02*
X113731571Y-81086000D01*
X113731571Y-81086000D02*
X113788713Y-81057428D01*
X114302999Y-81657428D02*
X114302999Y-81057428D01*
X114302999Y-81057428D02*
X114645856Y-81657428D01*
X114645856Y-81657428D02*
X114645856Y-81057428D01*
X112963000Y-80846000D02*
X114728713Y-80846000D01*
X137540141Y-109365657D02*
X137625856Y-109394228D01*
X137625856Y-109394228D02*
X137768713Y-109394228D01*
X137768713Y-109394228D02*
X137825856Y-109365657D01*
X137825856Y-109365657D02*
X137854427Y-109337085D01*
X137854427Y-109337085D02*
X137882998Y-109279942D01*
X137882998Y-109279942D02*
X137882998Y-109222800D01*
X137882998Y-109222800D02*
X137854427Y-109165657D01*
X137854427Y-109165657D02*
X137825856Y-109137085D01*
X137825856Y-109137085D02*
X137768713Y-109108514D01*
X137768713Y-109108514D02*
X137654427Y-109079942D01*
X137654427Y-109079942D02*
X137597284Y-109051371D01*
X137597284Y-109051371D02*
X137568713Y-109022800D01*
X137568713Y-109022800D02*
X137540141Y-108965657D01*
X137540141Y-108965657D02*
X137540141Y-108908514D01*
X137540141Y-108908514D02*
X137568713Y-108851371D01*
X137568713Y-108851371D02*
X137597284Y-108822800D01*
X137597284Y-108822800D02*
X137654427Y-108794228D01*
X137654427Y-108794228D02*
X137797284Y-108794228D01*
X137797284Y-108794228D02*
X137882998Y-108822800D01*
X195214857Y-103145857D02*
X195672000Y-103145857D01*
X144032998Y-109108514D02*
X144032998Y-109394228D01*
X143832998Y-108794228D02*
X144032998Y-109108514D01*
X144032998Y-109108514D02*
X144232998Y-108794228D01*
X138952998Y-109108514D02*
X138952998Y-109394228D01*
X138752998Y-108794228D02*
X138952998Y-109108514D01*
X138952998Y-109108514D02*
X139152998Y-108794228D01*
D11*
G36*
X146127977Y-108921823D02*
G01*
X146134345Y-108921915D01*
X146141071Y-108922141D01*
X146147040Y-108922492D01*
X146153601Y-108923130D01*
X146154258Y-108923204D01*
X146160578Y-108924040D01*
X146166439Y-108925047D01*
X146172359Y-108926354D01*
X146174047Y-108926822D01*
X146180501Y-108928905D01*
X146186474Y-108931322D01*
X146191966Y-108934073D01*
X146196977Y-108937158D01*
X146202565Y-108941485D01*
X146207401Y-108946335D01*
X146211486Y-108951706D01*
X146214948Y-108957497D01*
X146217823Y-108963696D01*
X146220112Y-108970303D01*
X146221813Y-108977318D01*
X146222752Y-108983223D01*
X146223315Y-108989389D01*
X146223503Y-108995817D01*
X146223297Y-109002133D01*
X146222679Y-109008223D01*
X146221648Y-109014086D01*
X146219925Y-109020639D01*
X146217641Y-109026884D01*
X146216121Y-109030305D01*
X146213019Y-109036005D01*
X146209357Y-109041341D01*
X146205133Y-109046312D01*
X146200349Y-109050918D01*
X146199628Y-109051536D01*
X146194258Y-109055626D01*
X146189197Y-109058796D01*
X146183714Y-109061657D01*
X146177808Y-109064209D01*
X146171479Y-109066452D01*
X146170393Y-109066785D01*
X146163640Y-109068564D01*
X146157706Y-109069756D01*
X146151493Y-109070682D01*
X146145001Y-109071344D01*
X146138230Y-109071742D01*
X146131179Y-109071874D01*
X146075931Y-109071874D01*
X146075931Y-108921811D01*
X146124585Y-108921811D01*
X146127977Y-108921823D01*
G37*
G36*
X146599022Y-109607714D02*
G01*
X145731920Y-109607714D01*
X145731920Y-109354707D01*
X145967634Y-109354707D01*
X145967790Y-109356713D01*
X145970125Y-109362181D01*
X145973266Y-109364946D01*
X145978772Y-109367457D01*
X145983033Y-109368667D01*
X145989243Y-109369931D01*
X145995331Y-109370827D01*
X145995996Y-109370899D01*
X146002427Y-109371445D01*
X146008824Y-109371775D01*
X146014948Y-109371943D01*
X146021563Y-109372000D01*
X146022565Y-109371998D01*
X146029257Y-109371926D01*
X146035387Y-109371742D01*
X146041707Y-109371394D01*
X146047941Y-109370827D01*
X146052233Y-109370222D01*
X146058183Y-109369158D01*
X146064354Y-109367603D01*
X146068476Y-109365900D01*
X146073147Y-109362327D01*
X146074365Y-109360661D01*
X146075931Y-109355000D01*
X146075931Y-109156284D01*
X146109783Y-109156284D01*
X146115087Y-109156413D01*
X146121187Y-109156908D01*
X146127939Y-109157953D01*
X146134298Y-109159504D01*
X146140265Y-109161560D01*
X146143514Y-109162957D01*
X146148969Y-109165776D01*
X146154129Y-109169071D01*
X146158995Y-109172844D01*
X146163566Y-109177094D01*
X146167898Y-109181827D01*
X146172049Y-109187051D01*
X146175461Y-109191920D01*
X146178740Y-109197149D01*
X146181884Y-109202739D01*
X146185027Y-109208614D01*
X146188190Y-109214809D01*
X146190842Y-109220215D01*
X146193508Y-109225842D01*
X146196188Y-109231692D01*
X146198883Y-109237764D01*
X146246657Y-109354267D01*
X146247869Y-109357436D01*
X146250760Y-109362621D01*
X146253869Y-109365523D01*
X146259260Y-109368189D01*
X146263430Y-109369434D01*
X146269530Y-109370588D01*
X146275527Y-109371267D01*
X146278201Y-109371439D01*
X146284210Y-109371713D01*
X146290188Y-109371879D01*
X146296840Y-109371974D01*
X146303077Y-109372000D01*
X146309320Y-109371982D01*
X146316244Y-109371913D01*
X146322550Y-109371793D01*
X146329126Y-109371587D01*
X146335610Y-109371267D01*
X146341906Y-109370679D01*
X146347814Y-109369809D01*
X146353782Y-109368336D01*
X146356885Y-109367112D01*
X146361549Y-109363353D01*
X146362318Y-109361723D01*
X146363308Y-109355733D01*
X146362729Y-109350546D01*
X146361256Y-109344595D01*
X146359573Y-109339306D01*
X146357373Y-109333175D01*
X146355213Y-109327509D01*
X146353049Y-109322027D01*
X146308060Y-109218420D01*
X146306077Y-109213826D01*
X146303585Y-109208252D01*
X146301079Y-109202864D01*
X146298054Y-109196644D01*
X146295007Y-109190692D01*
X146291940Y-109185007D01*
X146288821Y-109179570D01*
X146285620Y-109174360D01*
X146282336Y-109169376D01*
X146278401Y-109163848D01*
X146274354Y-109158629D01*
X146272026Y-109155790D01*
X146267851Y-109151085D01*
X146263551Y-109146718D01*
X146259124Y-109142686D01*
X146254571Y-109138992D01*
X146249268Y-109135044D01*
X146243763Y-109131408D01*
X146238057Y-109128083D01*
X146232149Y-109125070D01*
X146236745Y-109123542D01*
X146242725Y-109121369D01*
X146248535Y-109119041D01*
X146254176Y-109116556D01*
X146259648Y-109113916D01*
X146264949Y-109111120D01*
X146270082Y-109108169D01*
X146276259Y-109104260D01*
X146278653Y-109102631D01*
X146284428Y-109098401D01*
X146289902Y-109093950D01*
X146295075Y-109089276D01*
X146299948Y-109084381D01*
X146304521Y-109079264D01*
X146308793Y-109073926D01*
X146310416Y-109071727D01*
X146314254Y-109066065D01*
X146317778Y-109060166D01*
X146320986Y-109054032D01*
X146323880Y-109047661D01*
X146326459Y-109041054D01*
X146328723Y-109034212D01*
X146330337Y-109028570D01*
X146331736Y-109022781D01*
X146332920Y-109016846D01*
X146333889Y-109010764D01*
X146334642Y-109004536D01*
X146335180Y-108998161D01*
X146335503Y-108991640D01*
X146335610Y-108984972D01*
X146335601Y-108982983D01*
X146335462Y-108977098D01*
X146335015Y-108969448D01*
X146334271Y-108962022D01*
X146333229Y-108954821D01*
X146331890Y-108947844D01*
X146330252Y-108941091D01*
X146328317Y-108934563D01*
X146326085Y-108928259D01*
X146323605Y-108922173D01*
X146320855Y-108916297D01*
X146317835Y-108910632D01*
X146314544Y-108905178D01*
X146310984Y-108899935D01*
X146307153Y-108894902D01*
X146303052Y-108890079D01*
X146298681Y-108885468D01*
X146294088Y-108881035D01*
X146289247Y-108876822D01*
X146284159Y-108872828D01*
X146278824Y-108869055D01*
X146273241Y-108865501D01*
X146267412Y-108862167D01*
X146261335Y-108859053D01*
X146255010Y-108856159D01*
X146250144Y-108854102D01*
X146243475Y-108851544D01*
X146236600Y-108849197D01*
X146229519Y-108847061D01*
X146222231Y-108845135D01*
X146214738Y-108843420D01*
X146208983Y-108842272D01*
X146203112Y-108841243D01*
X146197125Y-108840332D01*
X146191400Y-108839709D01*
X146185364Y-108839159D01*
X146179017Y-108838683D01*
X146172359Y-108838280D01*
X146169764Y-108838123D01*
X146163188Y-108837816D01*
X146156971Y-108837621D01*
X146150219Y-108837487D01*
X146144182Y-108837422D01*
X146137774Y-108837401D01*
X145999728Y-108837401D01*
X145993243Y-108837905D01*
X145987271Y-108839416D01*
X145981812Y-108841935D01*
X145976867Y-108845461D01*
X145974703Y-108847599D01*
X145971241Y-108852838D01*
X145969158Y-108858474D01*
X145967959Y-108865092D01*
X145967634Y-108871546D01*
X145967634Y-108921811D01*
X145967634Y-109354707D01*
X145731920Y-109354707D01*
X145731920Y-108601687D01*
X146599022Y-108601687D01*
X146599022Y-109607714D01*
G37*
D10*
X120383285Y-74262857D02*
X120469000Y-74291428D01*
X120469000Y-74291428D02*
X120611857Y-74291428D01*
X120611857Y-74291428D02*
X120669000Y-74262857D01*
X120669000Y-74262857D02*
X120697571Y-74234285D01*
X120697571Y-74234285D02*
X120726142Y-74177142D01*
X120726142Y-74177142D02*
X120726142Y-74120000D01*
X120726142Y-74120000D02*
X120697571Y-74062857D01*
X120697571Y-74062857D02*
X120669000Y-74034285D01*
X120669000Y-74034285D02*
X120611857Y-74005714D01*
X120611857Y-74005714D02*
X120497571Y-73977142D01*
X120497571Y-73977142D02*
X120440428Y-73948571D01*
X120440428Y-73948571D02*
X120411857Y-73920000D01*
X120411857Y-73920000D02*
X120383285Y-73862857D01*
X120383285Y-73862857D02*
X120383285Y-73805714D01*
X120383285Y-73805714D02*
X120411857Y-73748571D01*
X120411857Y-73748571D02*
X120440428Y-73720000D01*
X120440428Y-73720000D02*
X120497571Y-73691428D01*
X120497571Y-73691428D02*
X120640428Y-73691428D01*
X120640428Y-73691428D02*
X120726142Y-73720000D01*
X120926143Y-73691428D02*
X121069000Y-74291428D01*
X121069000Y-74291428D02*
X121183286Y-73862857D01*
X121183286Y-73862857D02*
X121297571Y-74291428D01*
X121297571Y-74291428D02*
X121440429Y-73691428D01*
X121526143Y-74348571D02*
X121983285Y-74348571D01*
X122440428Y-74291428D02*
X122097571Y-74291428D01*
X122269000Y-74291428D02*
X122269000Y-73691428D01*
X122269000Y-73691428D02*
X122211857Y-73777142D01*
X122211857Y-73777142D02*
X122154714Y-73834285D01*
X122154714Y-73834285D02*
X122097571Y-73862857D01*
X124856857Y-77872857D02*
X125314000Y-77872857D01*
X125085428Y-78101428D02*
X125085428Y-77644285D01*
X166992285Y-82771857D02*
X167078000Y-82800428D01*
X167078000Y-82800428D02*
X167220857Y-82800428D01*
X167220857Y-82800428D02*
X167278000Y-82771857D01*
X167278000Y-82771857D02*
X167306571Y-82743285D01*
X167306571Y-82743285D02*
X167335142Y-82686142D01*
X167335142Y-82686142D02*
X167335142Y-82629000D01*
X167335142Y-82629000D02*
X167306571Y-82571857D01*
X167306571Y-82571857D02*
X167278000Y-82543285D01*
X167278000Y-82543285D02*
X167220857Y-82514714D01*
X167220857Y-82514714D02*
X167106571Y-82486142D01*
X167106571Y-82486142D02*
X167049428Y-82457571D01*
X167049428Y-82457571D02*
X167020857Y-82429000D01*
X167020857Y-82429000D02*
X166992285Y-82371857D01*
X166992285Y-82371857D02*
X166992285Y-82314714D01*
X166992285Y-82314714D02*
X167020857Y-82257571D01*
X167020857Y-82257571D02*
X167049428Y-82229000D01*
X167049428Y-82229000D02*
X167106571Y-82200428D01*
X167106571Y-82200428D02*
X167249428Y-82200428D01*
X167249428Y-82200428D02*
X167335142Y-82229000D01*
X167535143Y-82200428D02*
X167678000Y-82800428D01*
X167678000Y-82800428D02*
X167792286Y-82371857D01*
X167792286Y-82371857D02*
X167906571Y-82800428D01*
X167906571Y-82800428D02*
X168049429Y-82200428D01*
X168135143Y-82857571D02*
X168592285Y-82857571D01*
X168678000Y-82200428D02*
X169049428Y-82200428D01*
X169049428Y-82200428D02*
X168849428Y-82429000D01*
X168849428Y-82429000D02*
X168935143Y-82429000D01*
X168935143Y-82429000D02*
X168992286Y-82457571D01*
X168992286Y-82457571D02*
X169020857Y-82486142D01*
X169020857Y-82486142D02*
X169049428Y-82543285D01*
X169049428Y-82543285D02*
X169049428Y-82686142D01*
X169049428Y-82686142D02*
X169020857Y-82743285D01*
X169020857Y-82743285D02*
X168992286Y-82771857D01*
X168992286Y-82771857D02*
X168935143Y-82800428D01*
X168935143Y-82800428D02*
X168763714Y-82800428D01*
X168763714Y-82800428D02*
X168706571Y-82771857D01*
X168706571Y-82771857D02*
X168678000Y-82743285D01*
X192674857Y-103145857D02*
X193132000Y-103145857D01*
X192903428Y-103374428D02*
X192903428Y-102917285D01*
D11*
G36*
X137250693Y-109607714D02*
G01*
X136486320Y-109607714D01*
X136486320Y-109337854D01*
X136722034Y-109337854D01*
X136722115Y-109341173D01*
X136722764Y-109347276D01*
X136724342Y-109353498D01*
X136727227Y-109359424D01*
X136731267Y-109364086D01*
X136736212Y-109367548D01*
X136741671Y-109370021D01*
X136747643Y-109371505D01*
X136754128Y-109372000D01*
X136998566Y-109372000D01*
X137000312Y-109371880D01*
X137005747Y-109369508D01*
X137008406Y-109366327D01*
X137010876Y-109361009D01*
X137011724Y-109358304D01*
X137013040Y-109352536D01*
X137013953Y-109346354D01*
X137014249Y-109343464D01*
X137014690Y-109337104D01*
X137014915Y-109330719D01*
X137014979Y-109324519D01*
X137014954Y-109320547D01*
X137014810Y-109314623D01*
X137014494Y-109308594D01*
X137013953Y-109302683D01*
X137013608Y-109299976D01*
X137012574Y-109294178D01*
X137010876Y-109288322D01*
X137009493Y-109285234D01*
X137005747Y-109280555D01*
X137004351Y-109279641D01*
X136998566Y-109278210D01*
X136830771Y-109278210D01*
X136830771Y-108854547D01*
X136830597Y-108852550D01*
X136827987Y-108847219D01*
X136824741Y-108844381D01*
X136819194Y-108841944D01*
X136814946Y-108840747D01*
X136808791Y-108839538D01*
X136802781Y-108838720D01*
X136802134Y-108838639D01*
X136795797Y-108838024D01*
X136789386Y-108837653D01*
X136783175Y-108837464D01*
X136776403Y-108837401D01*
X136775428Y-108837402D01*
X136768883Y-108837483D01*
X136762829Y-108837691D01*
X136756512Y-108838082D01*
X136750171Y-108838720D01*
X136745234Y-108839361D01*
X136739314Y-108840422D01*
X136733611Y-108841944D01*
X136729469Y-108843668D01*
X136724672Y-108847366D01*
X136723644Y-108848818D01*
X136722034Y-108854693D01*
X136722034Y-109337854D01*
X136486320Y-109337854D01*
X136486320Y-108601687D01*
X137250693Y-108601687D01*
X137250693Y-109607714D01*
G37*
D10*
X174485285Y-77818857D02*
X174571000Y-77847428D01*
X174571000Y-77847428D02*
X174713857Y-77847428D01*
X174713857Y-77847428D02*
X174771000Y-77818857D01*
X174771000Y-77818857D02*
X174799571Y-77790285D01*
X174799571Y-77790285D02*
X174828142Y-77733142D01*
X174828142Y-77733142D02*
X174828142Y-77676000D01*
X174828142Y-77676000D02*
X174799571Y-77618857D01*
X174799571Y-77618857D02*
X174771000Y-77590285D01*
X174771000Y-77590285D02*
X174713857Y-77561714D01*
X174713857Y-77561714D02*
X174599571Y-77533142D01*
X174599571Y-77533142D02*
X174542428Y-77504571D01*
X174542428Y-77504571D02*
X174513857Y-77476000D01*
X174513857Y-77476000D02*
X174485285Y-77418857D01*
X174485285Y-77418857D02*
X174485285Y-77361714D01*
X174485285Y-77361714D02*
X174513857Y-77304571D01*
X174513857Y-77304571D02*
X174542428Y-77276000D01*
X174542428Y-77276000D02*
X174599571Y-77247428D01*
X174599571Y-77247428D02*
X174742428Y-77247428D01*
X174742428Y-77247428D02*
X174828142Y-77276000D01*
X175028143Y-77247428D02*
X175171000Y-77847428D01*
X175171000Y-77847428D02*
X175285286Y-77418857D01*
X175285286Y-77418857D02*
X175399571Y-77847428D01*
X175399571Y-77847428D02*
X175542429Y-77247428D01*
X175628143Y-77904571D02*
X176085285Y-77904571D01*
X176542428Y-77847428D02*
X176199571Y-77847428D01*
X176371000Y-77847428D02*
X176371000Y-77247428D01*
X176371000Y-77247428D02*
X176313857Y-77333142D01*
X176313857Y-77333142D02*
X176256714Y-77390285D01*
X176256714Y-77390285D02*
X176199571Y-77418857D01*
%TO.C,U501*%
X139878000Y-89000000D02*
X139878000Y-88600000D01*
X143078000Y-89000000D02*
X142678000Y-89000000D01*
X143078000Y-89000000D02*
X143078000Y-88600000D01*
X139878000Y-85800000D02*
X139878000Y-86200000D01*
X139878000Y-85800000D02*
X140278000Y-85800000D01*
X143078000Y-85800000D02*
X143078000Y-86200000D01*
X143078000Y-85800000D02*
X142678000Y-85800000D01*
D13*
%TO.C,U502*%
X103952000Y-104537000D02*
X105202000Y-104537000D01*
X103952000Y-105787000D02*
X103952000Y-104537000D01*
X103952000Y-123287000D02*
X103952000Y-124537000D01*
X105202000Y-124537000D02*
X103952000Y-124537000D01*
X110952000Y-99037000D02*
X112202000Y-99037000D01*
X110952000Y-100287000D02*
X110952000Y-99037000D01*
X110952000Y-103287000D02*
X110952000Y-104537000D01*
X110952000Y-104537000D02*
X109702000Y-104537000D01*
X119702000Y-99037000D02*
X120952000Y-99037000D01*
X120952000Y-99037000D02*
X120952000Y-100287000D01*
X120952000Y-104537000D02*
X120952000Y-103287000D01*
X120952000Y-104537000D02*
X122202000Y-104537000D01*
X126702000Y-104537000D02*
X127952000Y-104537000D01*
X127952000Y-105787000D02*
X127952000Y-104537000D01*
X127952000Y-124537000D02*
X126702000Y-124537000D01*
X127952000Y-124537000D02*
X127952000Y-123287000D01*
D14*
X118214500Y-113037000D02*
G75*
G03*
X118214500Y-113037000I-2262500J0D01*
G01*
D15*
X122452000Y-113037000D02*
G75*
G03*
X122452000Y-113037000I-6500000J0D01*
G01*
D13*
%TO.C,J101*%
X146058000Y-75973000D02*
X146058000Y-75118000D01*
X146058000Y-71998000D02*
X146058000Y-71048000D01*
X146058000Y-71048000D02*
X136898000Y-71048000D01*
X136898000Y-75973000D02*
X136898000Y-75118000D01*
X136898000Y-71998000D02*
X136898000Y-71048000D01*
%TO.C,U302*%
X131185500Y-78486000D02*
X129385500Y-78486000D01*
X131185500Y-78486000D02*
X131985500Y-78486000D01*
X131185500Y-81606000D02*
X130385500Y-81606000D01*
X131185500Y-81606000D02*
X131985500Y-81606000D01*
%TO.C,FB201*%
X135739600Y-78348521D02*
X135739600Y-78674079D01*
X134719600Y-78348521D02*
X134719600Y-78674079D01*
%TO.C,Q501*%
X146763500Y-94198000D02*
X145088500Y-94198000D01*
X146763500Y-94198000D02*
X147413500Y-94198000D01*
X146763500Y-97318000D02*
X146113500Y-97318000D01*
X146763500Y-97318000D02*
X147413500Y-97318000D01*
%TO.C,D501*%
X162088000Y-73720000D02*
X162088000Y-69860000D01*
X162088000Y-73720000D02*
X158968000Y-73720000D01*
X161798000Y-73850000D02*
X161798000Y-73850000D01*
X161798000Y-73850000D02*
X161798000Y-73720000D01*
X161798000Y-73720000D02*
X161798000Y-73850000D01*
X161798000Y-73720000D02*
X161798000Y-73720000D01*
X159258000Y-73850000D02*
X159258000Y-73850000D01*
X159258000Y-73850000D02*
X159258000Y-73720000D01*
X159258000Y-73720000D02*
X159258000Y-73850000D01*
X159258000Y-73720000D02*
X159258000Y-73720000D01*
X158968000Y-73720000D02*
X158968000Y-69860000D01*
X158968000Y-73720000D02*
X158568000Y-73720000D01*
X158968000Y-72600000D02*
X158968000Y-73720000D01*
X158568000Y-73720000D02*
X158568000Y-72600000D01*
X158568000Y-72600000D02*
X158968000Y-72600000D01*
X162088000Y-69860000D02*
G75*
G03*
X158968000Y-69860000I-1560000J0D01*
G01*
%TO.C,C302*%
X122703000Y-79894836D02*
X122703000Y-79679164D01*
X123423000Y-79894836D02*
X123423000Y-79679164D01*
%TO.C,U202*%
X140314800Y-82856800D02*
X140849800Y-82856800D01*
X140314800Y-82991800D02*
X140314800Y-82856800D01*
X142234800Y-84376800D02*
X142234800Y-84241800D01*
X141699800Y-84376800D02*
X142234800Y-84376800D01*
X140314800Y-84376800D02*
X140314800Y-84241800D01*
X140314800Y-84376800D02*
X140849800Y-84376800D01*
D10*
%TO.C,SW506*%
X115200400Y-73641000D02*
X115700400Y-73141000D01*
X115200400Y-74441000D02*
X115200400Y-73641000D01*
X115700400Y-73141000D02*
X119300400Y-73141000D01*
X115700400Y-74941000D02*
X115200400Y-74441000D01*
X119300400Y-73141000D02*
X119800400Y-73641000D01*
X119300400Y-74941000D02*
X115700400Y-74941000D01*
X119800400Y-73641000D02*
X119800400Y-74441000D01*
X119800400Y-74441000D02*
X119300400Y-74941000D01*
D13*
%TO.C,L301*%
X122149000Y-90755000D02*
X122149000Y-89905000D01*
X122149000Y-90755000D02*
X117229000Y-90755000D01*
X122149000Y-86035000D02*
X122149000Y-86885000D01*
X122149000Y-86035000D02*
X117229000Y-86035000D01*
X117229000Y-90755000D02*
X117229000Y-89905000D01*
X117229000Y-86035000D02*
X117229000Y-86885000D01*
%TO.C,U304*%
X125394500Y-81225000D02*
X125394500Y-81700000D01*
X124919500Y-85445000D02*
X125394500Y-85445000D01*
X124919500Y-81225000D02*
X125394500Y-81225000D01*
X121649500Y-85445000D02*
X121174500Y-85445000D01*
X121649500Y-81225000D02*
X121174500Y-81225000D01*
X121174500Y-85445000D02*
X121174500Y-84970000D01*
X121174500Y-81225000D02*
X121174500Y-81700000D01*
D10*
%TO.C,SW508*%
X169505600Y-82150000D02*
X170005600Y-81650000D01*
X169505600Y-82950000D02*
X169505600Y-82150000D01*
X170005600Y-81650000D02*
X173605600Y-81650000D01*
X170005600Y-83450000D02*
X169505600Y-82950000D01*
X173605600Y-81650000D02*
X174105600Y-82150000D01*
X173605600Y-83450000D02*
X170005600Y-83450000D01*
X174105600Y-82150000D02*
X174105600Y-82950000D01*
X174105600Y-82950000D02*
X173605600Y-83450000D01*
D13*
%TO.C,C304*%
X126979000Y-85899164D02*
X126979000Y-86114836D01*
X126259000Y-85899164D02*
X126259000Y-86114836D01*
%TO.C,J503*%
X135638000Y-112108000D02*
X135638000Y-110998000D01*
X136398000Y-112108000D02*
X135638000Y-112108000D01*
X137158000Y-112108000D02*
X147253000Y-112108000D01*
X137158000Y-112108000D02*
X137158000Y-111561471D01*
X147253000Y-112108000D02*
X147253000Y-111305530D01*
X147253000Y-110690470D02*
X147253000Y-109888000D01*
X137158000Y-110434529D02*
X137158000Y-109888000D01*
X137158000Y-109888000D02*
X147253000Y-109888000D01*
D10*
%TO.C,M501*%
X191903000Y-101307000D02*
X192403000Y-100807000D01*
X191903000Y-102107000D02*
X191903000Y-101307000D01*
X192403000Y-100807000D02*
X196003000Y-100807000D01*
X192403000Y-102607000D02*
X191903000Y-102107000D01*
X196003000Y-100807000D02*
X196503000Y-101307000D01*
X196003000Y-102607000D02*
X192403000Y-102607000D01*
X196503000Y-101307000D02*
X196503000Y-102107000D01*
X196503000Y-102107000D02*
X196003000Y-102607000D01*
D13*
%TO.C,U203*%
X140342500Y-79806000D02*
X140342500Y-81406000D01*
X142142500Y-81406000D02*
X142142500Y-79506000D01*
%TO.C,C303*%
X120502000Y-83842164D02*
X120502000Y-84057836D01*
X119782000Y-83842164D02*
X119782000Y-84057836D01*
%TO.C,C301*%
X124606164Y-86130000D02*
X124821836Y-86130000D01*
X124606164Y-86850000D02*
X124821836Y-86850000D01*
%TO.C,C401*%
X133864000Y-99714164D02*
X133864000Y-99929836D01*
X133144000Y-99714164D02*
X133144000Y-99929836D01*
%TO.C,C202*%
X135615000Y-80819164D02*
X135615000Y-81034836D01*
X134895000Y-80819164D02*
X134895000Y-81034836D01*
%TO.C,J503*%
X135643000Y-103980000D02*
X135643000Y-102870000D01*
X136403000Y-103980000D02*
X135643000Y-103980000D01*
X137163000Y-103980000D02*
X147258000Y-103980000D01*
X137163000Y-103980000D02*
X137163000Y-103433471D01*
X147258000Y-103980000D02*
X147258000Y-103177530D01*
X147258000Y-102562470D02*
X147258000Y-101760000D01*
X137163000Y-102306529D02*
X137163000Y-101760000D01*
X137163000Y-101760000D02*
X147258000Y-101760000D01*
%TO.C,U201*%
X136108000Y-81235000D02*
X136108000Y-83035000D01*
X136108000Y-81235000D02*
X136108000Y-80435000D01*
X139228000Y-81235000D02*
X139228000Y-82035000D01*
X139228000Y-81235000D02*
X139228000Y-80435000D01*
%TO.C,C201*%
X134370400Y-78914164D02*
X134370400Y-79129836D01*
X133650400Y-78914164D02*
X133650400Y-79129836D01*
D10*
%TO.C,SW505*%
X169511000Y-77197000D02*
X170011000Y-76697000D01*
X169511000Y-77997000D02*
X169511000Y-77197000D01*
X170011000Y-76697000D02*
X173611000Y-76697000D01*
X170011000Y-78497000D02*
X169511000Y-77997000D01*
X173611000Y-76697000D02*
X174111000Y-77197000D01*
X173611000Y-78497000D02*
X170011000Y-78497000D01*
X174111000Y-77197000D02*
X174111000Y-77997000D01*
X174111000Y-77997000D02*
X173611000Y-78497000D01*
D13*
%TO.C,C307*%
X125241164Y-91588000D02*
X125456836Y-91588000D01*
X125241164Y-92308000D02*
X125456836Y-92308000D01*
%TO.C,C402*%
X132901000Y-99714164D02*
X132901000Y-99929836D01*
X132181000Y-99714164D02*
X132181000Y-99929836D01*
D10*
%TO.C,BT301*%
X124212000Y-78950000D02*
X124712000Y-78450000D01*
X124212000Y-79750000D02*
X124212000Y-78950000D01*
X124712000Y-78450000D02*
X128312000Y-78450000D01*
X124712000Y-80250000D02*
X124212000Y-79750000D01*
X128312000Y-78450000D02*
X128812000Y-78950000D01*
X128312000Y-80250000D02*
X124712000Y-80250000D01*
X128812000Y-78950000D02*
X128812000Y-79750000D01*
X128812000Y-79750000D02*
X128312000Y-80250000D01*
%TO.C,SW301*%
X119775000Y-81680000D02*
X119275000Y-82180000D01*
X119775000Y-80880000D02*
X119775000Y-81680000D01*
X119275000Y-82180000D02*
X115675000Y-82180000D01*
X119275000Y-80380000D02*
X119775000Y-80880000D01*
X115675000Y-82180000D02*
X115175000Y-81680000D01*
X115675000Y-80380000D02*
X119275000Y-80380000D01*
X115175000Y-81680000D02*
X115175000Y-80880000D01*
X115175000Y-80880000D02*
X115675000Y-80380000D01*
%TO.C,M502*%
X82790000Y-100946000D02*
X83290000Y-100446000D01*
X82790000Y-101746000D02*
X82790000Y-100946000D01*
X83290000Y-100446000D02*
X86890000Y-100446000D01*
X83290000Y-102246000D02*
X82790000Y-101746000D01*
X86890000Y-100446000D02*
X87390000Y-100946000D01*
X86890000Y-102246000D02*
X83290000Y-102246000D01*
X87390000Y-100946000D02*
X87390000Y-101746000D01*
X87390000Y-101746000D02*
X86890000Y-102246000D01*
D13*
%TO.C,C403*%
X131959000Y-99716164D02*
X131959000Y-99931836D01*
X131239000Y-99716164D02*
X131239000Y-99931836D01*
%TO.C,U504*%
X155053000Y-105038000D02*
X156303000Y-105038000D01*
X155053000Y-106288000D02*
X155053000Y-105038000D01*
X155053000Y-123788000D02*
X155053000Y-125038000D01*
X156303000Y-125038000D02*
X155053000Y-125038000D01*
X162053000Y-99538000D02*
X163303000Y-99538000D01*
X162053000Y-100788000D02*
X162053000Y-99538000D01*
X162053000Y-103788000D02*
X162053000Y-105038000D01*
X162053000Y-105038000D02*
X160803000Y-105038000D01*
X170803000Y-99538000D02*
X172053000Y-99538000D01*
X172053000Y-99538000D02*
X172053000Y-100788000D01*
X172053000Y-105038000D02*
X172053000Y-103788000D01*
X172053000Y-105038000D02*
X173303000Y-105038000D01*
X177803000Y-105038000D02*
X179053000Y-105038000D01*
X179053000Y-106288000D02*
X179053000Y-105038000D01*
X179053000Y-125038000D02*
X177803000Y-125038000D01*
X179053000Y-125038000D02*
X179053000Y-123788000D01*
D14*
X169315500Y-113538000D02*
G75*
G03*
X169315500Y-113538000I-2262500J0D01*
G01*
D15*
X173553000Y-113538000D02*
G75*
G03*
X173553000Y-113538000I-6500000J0D01*
G01*
D13*
%TO.C,C308*%
X126726836Y-87866000D02*
X126511164Y-87866000D01*
X126726836Y-87146000D02*
X126511164Y-87146000D01*
D10*
%TO.C,TH301*%
X119775000Y-79267000D02*
X119275000Y-79767000D01*
X119775000Y-78467000D02*
X119775000Y-79267000D01*
X119275000Y-79767000D02*
X115675000Y-79767000D01*
X119275000Y-77967000D02*
X119775000Y-78467000D01*
X115675000Y-79767000D02*
X115175000Y-79267000D01*
X115675000Y-77967000D02*
X119275000Y-77967000D01*
X115175000Y-79267000D02*
X115175000Y-78467000D01*
X115175000Y-78467000D02*
X115675000Y-77967000D01*
D13*
%TO.C,U503*%
X139368000Y-100154000D02*
X139368000Y-99704000D01*
X139818000Y-95934000D02*
X139368000Y-95934000D01*
X139818000Y-100154000D02*
X139368000Y-100154000D01*
X143138000Y-95934000D02*
X143588000Y-95934000D01*
X143138000Y-100154000D02*
X143588000Y-100154000D01*
X143588000Y-95934000D02*
X143588000Y-96384000D01*
X143588000Y-100154000D02*
X143588000Y-99704000D01*
%TO.C,Q504*%
X167168000Y-73720000D02*
X167168000Y-69860000D01*
X167168000Y-73720000D02*
X164048000Y-73720000D01*
X166878000Y-73850000D02*
X166878000Y-73850000D01*
X166878000Y-73850000D02*
X166878000Y-73720000D01*
X166878000Y-73720000D02*
X166878000Y-73850000D01*
X166878000Y-73720000D02*
X166878000Y-73720000D01*
X164338000Y-73850000D02*
X164338000Y-73850000D01*
X164338000Y-73850000D02*
X164338000Y-73720000D01*
X164338000Y-73720000D02*
X164338000Y-73850000D01*
X164338000Y-73720000D02*
X164338000Y-73720000D01*
X164048000Y-73720000D02*
X164048000Y-69860000D01*
X164048000Y-73720000D02*
X163648000Y-73720000D01*
X164048000Y-72600000D02*
X164048000Y-73720000D01*
X163648000Y-73720000D02*
X163648000Y-72600000D01*
X163648000Y-72600000D02*
X164048000Y-72600000D01*
X167168000Y-69860000D02*
G75*
G03*
X164048000Y-69860000I-1560000J0D01*
G01*
D10*
%TO.C,SW507*%
X115200400Y-76040000D02*
X115700400Y-75540000D01*
X115200400Y-76840000D02*
X115200400Y-76040000D01*
X115700400Y-75540000D02*
X119300400Y-75540000D01*
X115700400Y-77340000D02*
X115200400Y-76840000D01*
X119300400Y-75540000D02*
X119800400Y-76040000D01*
X119300400Y-77340000D02*
X115700400Y-77340000D01*
X119800400Y-76040000D02*
X119800400Y-76840000D01*
X119800400Y-76840000D02*
X119300400Y-77340000D01*
D13*
%TO.C,D201*%
X133871600Y-76997200D02*
X135571600Y-76997200D01*
X133871600Y-76997200D02*
X133871600Y-74337200D01*
X135571600Y-76997200D02*
X135571600Y-74337200D01*
%TO.C,Q503*%
X85090000Y-96865000D02*
X83415000Y-96865000D01*
X85090000Y-96865000D02*
X85740000Y-96865000D01*
X85090000Y-99985000D02*
X84440000Y-99985000D01*
X85090000Y-99985000D02*
X85740000Y-99985000D01*
D10*
%TO.C,SW509*%
X169505600Y-79610000D02*
X170005600Y-79110000D01*
X169505600Y-80410000D02*
X169505600Y-79610000D01*
X170005600Y-79110000D02*
X173605600Y-79110000D01*
X170005600Y-80910000D02*
X169505600Y-80410000D01*
X173605600Y-79110000D02*
X174105600Y-79610000D01*
X173605600Y-80910000D02*
X170005600Y-80910000D01*
X174105600Y-79610000D02*
X174105600Y-80410000D01*
X174105600Y-80410000D02*
X173605600Y-80910000D01*
D13*
%TO.C,Q502*%
X194485500Y-97185000D02*
X192810500Y-97185000D01*
X194485500Y-97185000D02*
X195135500Y-97185000D01*
X194485500Y-100305000D02*
X193835500Y-100305000D01*
X194485500Y-100305000D02*
X195135500Y-100305000D01*
%TO.C,U301*%
X131191000Y-78202000D02*
X132991000Y-78202000D01*
X131191000Y-78202000D02*
X130391000Y-78202000D01*
X131191000Y-75082000D02*
X131991000Y-75082000D01*
X131191000Y-75082000D02*
X130391000Y-75082000D01*
%TO.C,J502*%
X146823000Y-93656000D02*
X146823000Y-92206000D01*
X148573000Y-93656000D02*
X146823000Y-93656000D01*
X150793000Y-93656000D02*
X151343000Y-93656000D01*
X151343000Y-93656000D02*
X151343000Y-80636000D01*
X146823000Y-92206000D02*
X145933000Y-92206000D01*
X146823000Y-80636000D02*
X146823000Y-82086000D01*
X148573000Y-80636000D02*
X146823000Y-80636000D01*
X151343000Y-80636000D02*
X150793000Y-80636000D01*
%TO.C,U303*%
X125654000Y-88157000D02*
X123854000Y-88157000D01*
X125654000Y-88157000D02*
X126454000Y-88157000D01*
X125654000Y-91277000D02*
X124854000Y-91277000D01*
X125654000Y-91277000D02*
X126454000Y-91277000D01*
%TO.C,C305*%
X124606164Y-87146000D02*
X124821836Y-87146000D01*
X124606164Y-87866000D02*
X124821836Y-87866000D01*
%TD*%
M02*
